HIERARCHY
ROOT joint_Root
{
	OFFSET 0.0 0.0 0.0
	CHANNELS 6 Xposition Yposition Zposition Zrotation Xrotation Yrotation 
	JOINT Hips
	{
		OFFSET -0.726466 93.3139 -2.00062
		CHANNELS 6 Xposition Yposition Zposition Zrotation Xrotation Yrotation 
		JOINT Spine
		{
			OFFSET 15.7357 0.0 0.0
			CHANNELS 6 Xposition Yposition Zposition Zrotation Xrotation Yrotation 
			JOINT Chest
			{
				OFFSET 8.98455 -0.406207 0.0
				CHANNELS 6 Xposition Yposition Zposition Zrotation Xrotation Yrotation 
				JOINT Neck
				{
					OFFSET 16.3773 0.0 0.0
					CHANNELS 6 Xposition Yposition Zposition Zrotation Xrotation Yrotation 
					JOINT Head
					{
						OFFSET 6.45672 0.0 0.0
						CHANNELS 6 Xposition Yposition Zposition Zrotation Xrotation Yrotation 
						End Site
						{
							OFFSET 0.0 0.0 0.0
						}
					}
				}
				JOINT Shoulder_L
				{
					OFFSET 12.9942 -0.242716 4.98039
					CHANNELS 6 Xposition Yposition Zposition Zrotation Xrotation Yrotation 
					JOINT UpperArm_L
					{
						OFFSET 5.34809 0.0 0.0
						CHANNELS 6 Xposition Yposition Zposition Zrotation Xrotation Yrotation 
						JOINT LowerArm_L
						{
							OFFSET 24.3286 1.87007e-05 0.0
							CHANNELS 6 Xposition Yposition Zposition Zrotation Xrotation Yrotation 
							JOINT Hand_L
							{
								OFFSET 22.2916 0.0 0.0
								CHANNELS 6 Xposition Yposition Zposition Zrotation Xrotation Yrotation 
								End Site
								{
									OFFSET 0.0 0.0 0.0
								}
							}
						}
					}
				}
				JOINT Shoulder_R
				{
					OFFSET 12.9945 -0.242716 -4.98039
					CHANNELS 6 Xposition Yposition Zposition Zrotation Xrotation Yrotation 
					JOINT UpperArm_R
					{
						OFFSET -5.34813 0.0 0.0
						CHANNELS 6 Xposition Yposition Zposition Zrotation Xrotation Yrotation 
						JOINT LowerArm_R
						{
							OFFSET -24.3289 0.000322201 0.0
							CHANNELS 6 Xposition Yposition Zposition Zrotation Xrotation Yrotation 
							JOINT Hand_R
							{
								OFFSET -22.2915 -0.000108084 0.0
								CHANNELS 6 Xposition Yposition Zposition Zrotation Xrotation Yrotation 
								End Site
								{
									OFFSET 0.0 0.0 0.0
								}
							}
						}
					}
				}
			}
		}
		JOINT UpperLeg_L
		{
			OFFSET -2.19248 -6.46944 0.0
			CHANNELS 6 Xposition Yposition Zposition Zrotation Xrotation Yrotation 
			JOINT LowerLeg_L
			{
				OFFSET 39.0811 0.0 -1.23785e-05
				CHANNELS 6 Xposition Yposition Zposition Zrotation Xrotation Yrotation 
				JOINT Foot_L
				{
					OFFSET 40.9854 0.0 -1.26872e-05
					CHANNELS 6 Xposition Yposition Zposition Zrotation Xrotation Yrotation 
					JOINT Toes_L
					{
						OFFSET 11.7543 0.0 0.0
						CHANNELS 6 Xposition Yposition Zposition Zrotation Xrotation Yrotation 
						End Site
						{
							OFFSET 0.0 0.0 0.0
						}
					}
				}
			}
		}
		JOINT UpperLeg_R
		{
			OFFSET -2.19251 6.46944 0.0
			CHANNELS 6 Xposition Yposition Zposition Zrotation Xrotation Yrotation 
			JOINT LowerLeg_R
			{
				OFFSET -39.0811 -0.00228153 -0.0401928
				CHANNELS 6 Xposition Yposition Zposition Zrotation Xrotation Yrotation 
				JOINT Foot_R
				{
					OFFSET -40.9854 0.0 0.0
					CHANNELS 6 Xposition Yposition Zposition Zrotation Xrotation Yrotation 
					JOINT Toes_R
					{
						OFFSET -11.7543 0.0 0.0
						CHANNELS 6 Xposition Yposition Zposition Zrotation Xrotation Yrotation 
						End Site
						{
							OFFSET 0.0 0.0 0.0
						}
					}
				}
			}
		}
	}
}
MOTION
Frames:	9
Frame Time:	0.0333333
0.000000 0.000000 0.000000 0.000000 0.000000 -0.000000 -0.640151 92.340400 -0.389849 88.052000 -1.050520 2.961430 15.735700 0.000005 -0.000001 89.523400 85.490500 -89.057100 8.984550 -0.406207 -0.000000 1.253160 -0.101476 0.933034 16.377300 -0.000001 -0.000001 3.800270 -2.499430 0.331899 6.456720 -0.000001 -0.000000 1.832880 -1.681040 0.090317 12.994200 -0.242716 4.980390 -90.172200 0.552426 -72.686100 5.348090 -0.000007 -0.000001 -67.221000 38.636100 -14.717800 24.328600 0.000019 0.000005 1.505790 3.375940 -24.053000 22.291600 -0.000001 0.000005 2.687140 5.420860 -3.624020 12.994500 -0.242716 -4.980390 87.614200 6.971980 -71.055900 -5.348130 -0.000001 -0.000004 -65.311100 39.425300 -14.967800 -24.328900 0.000322 -0.000009 1.621800 4.916230 -18.293600 -22.291500 -0.000108 -0.000004 9.479230 5.329760 -0.778624 -2.192480 -6.469440 -0.000000 -175.696000 -6.646850 -3.320620 39.081100 -0.000007 -0.000012 -0.106074 0.256352 22.478900 40.985400 -0.000006 -0.000013 -0.253844 3.031440 -66.384200 11.754300 -0.000000 0.000003 -0.000045 -0.000515 -16.597600 -2.192510 6.469440 -0.000001 179.652000 13.262500 178.981000 -39.081100 -0.002282 -0.040193 -0.057893 0.177487 19.029600 -40.985400 0.000008 0.000006 2.413150 7.993770 -65.404100 -11.754300 -0.000006 -0.000006 -0.006925 -0.079016 -19.789700
0.000000 0.000000 0.000000 0.000000 0.000000 -0.000000 -0.653408 92.330600 -0.412237 88.039800 -1.047960 2.985430 15.735700 0.000005 -0.000001 89.692100 85.468700 -89.192300 8.984550 -0.406207 -0.000000 1.296960 -0.076876 0.999732 16.377300 -0.000001 -0.000001 3.792740 -2.644410 0.404034 6.456720 -0.000001 -0.000000 1.850530 -1.714360 0.061151 12.994200 -0.242716 4.980390 -90.274900 0.884808 -72.738000 5.348090 -0.000007 -0.000001 -66.447600 36.976900 -14.942100 24.328600 0.000019 0.000005 2.261280 4.623370 -26.095100 22.291600 -0.000001 0.000005 1.367780 5.399720 -2.926810 12.994500 -0.242716 -4.980390 87.631900 6.886630 -70.971200 -5.348130 -0.000001 -0.000004 -65.373700 39.299400 -14.978800 -24.328900 0.000322 -0.000009 1.586370 4.809050 -18.292000 -22.291500 -0.000108 -0.000004 9.466510 5.330050 -0.786882 -2.192480 -6.469440 -0.000000 -175.656000 -6.709850 -3.364010 39.081100 -0.000007 -0.000012 -0.107536 0.258664 22.574600 40.985400 -0.000006 -0.000013 -0.255199 3.096890 -66.409000 11.754300 -0.000000 0.000003 -0.000044 -0.000508 -16.597300 -2.192510 6.469440 -0.000001 179.668000 13.233100 178.960000 -39.081100 -0.002282 -0.040193 -0.060306 0.183876 19.087800 -40.985400 0.000008 0.000006 2.307810 7.970440 -65.400100 -11.754300 -0.000006 -0.000006 -0.007016 -0.079799 -19.821700
0.000000 0.000000 0.000000 0.000000 0.000000 -0.000000 -0.696771 92.337200 -0.465399 88.065900 -0.908021 2.999370 15.735700 0.000005 -0.000001 89.888000 85.451300 -89.376500 8.984550 -0.406207 -0.000000 1.331730 -0.046480 1.022590 16.377300 -0.000001 -0.000001 3.815870 -2.784240 0.477453 6.456720 -0.000001 -0.000000 1.852580 -1.914250 0.127276 12.994200 -0.242716 4.980390 -90.414400 1.327390 -72.661100 5.348090 -0.000007 -0.000001 -64.419900 34.948700 -16.213000 24.328600 0.000019 0.000005 2.973850 5.296110 -29.369200 22.291600 -0.000001 0.000005 1.427870 5.391300 -2.655890 12.994500 -0.242716 -4.980390 87.652900 6.799000 -70.903000 -5.348130 -0.000001 -0.000004 -65.511200 39.110400 -14.877800 -24.328900 0.000322 -0.000009 1.602340 4.859590 -18.284900 -22.291500 -0.000108 -0.000004 9.517870 5.329850 -0.781105 -2.192480 -6.469440 -0.000000 -175.668000 -6.534990 -3.378890 39.081100 -0.000007 -0.000012 -0.107394 0.258868 22.531600 40.985400 -0.000006 -0.000013 -0.283479 3.092310 -66.346600 11.754300 -0.000000 0.000003 -0.000049 -0.000551 -16.599000 -2.192510 6.469440 -0.000001 179.667000 13.334400 178.953000 -39.081100 -0.002282 -0.040193 -0.060532 0.184619 19.079300 -40.985400 0.000008 0.000006 2.313350 7.942090 -65.374600 -11.754300 -0.000006 -0.000006 -0.006933 -0.079085 -19.792500
0.000000 0.000000 0.000000 0.000000 0.000000 -0.000000 -0.760527 92.340200 -0.520233 88.097400 -0.668244 3.050580 15.735700 0.000005 -0.000001 90.352400 85.428000 -89.848000 8.984550 -0.406207 -0.000000 1.377840 0.028110 1.007650 16.377300 -0.000001 -0.000001 3.894130 -2.985090 0.608445 6.456720 -0.000001 -0.000000 1.838560 -2.253790 0.129517 12.994200 -0.242716 4.980390 -90.503400 1.608310 -72.616400 5.348090 -0.000007 -0.000001 -61.746000 32.038100 -18.323600 24.328600 0.000019 0.000005 3.552700 5.319170 -33.807500 22.291600 -0.000001 0.000005 3.279240 5.414230 -3.397600 12.994500 -0.242716 -4.980390 87.678300 6.697720 -70.831700 -5.348130 -0.000001 -0.000004 -65.651700 39.068100 -14.748100 -24.328900 0.000322 -0.000009 1.531250 4.647950 -18.268800 -22.291500 -0.000108 -0.000004 9.342090 5.330120 -0.788980 -2.192480 -6.469440 -0.000000 -175.660000 -6.444550 -3.411320 39.081100 -0.000007 -0.000012 -0.105457 0.254183 22.533000 40.985400 -0.000006 -0.000013 -0.290839 3.230350 -66.275600 11.754300 -0.000000 0.000003 -0.000042 -0.000481 -16.596300 -2.192510 6.469440 -0.000001 179.666000 13.547700 178.974000 -39.081100 -0.002282 -0.040193 -0.061840 0.188073 19.110200 -40.985400 0.000008 0.000006 2.373520 7.863270 -65.385200 -11.754300 -0.000006 -0.000006 -0.007103 -0.080543 -19.852100
0.000000 0.000000 0.000000 0.000000 0.000000 -0.000000 -0.854380 92.344000 -0.604182 88.121400 -0.325730 3.082640 15.735700 0.000005 -0.000001 90.418400 85.421200 -89.920500 8.984550 -0.406207 -0.000000 1.391260 0.039159 0.994429 16.377300 -0.000001 -0.000001 3.973470 -3.102510 0.628364 6.456720 -0.000001 -0.000000 1.904080 -2.627110 0.209177 12.994200 -0.242716 4.980390 -90.511000 1.623780 -72.529500 5.348090 -0.000007 -0.000001 -59.069600 27.984200 -20.969600 24.328600 0.000019 0.000005 4.936940 6.011360 -39.504300 22.291600 -0.000001 0.000005 5.457030 5.433620 -4.062870 12.994500 -0.242716 -4.980390 87.694000 6.658020 -70.846900 -5.348130 -0.000001 -0.000004 -65.630600 39.204100 -14.701700 -24.328900 0.000322 -0.000009 1.566160 4.792920 -18.130900 -22.291500 -0.000108 -0.000004 9.365010 5.329240 -0.763372 -2.192480 -6.469440 -0.000000 -175.605000 -6.318800 -3.492590 39.081100 -0.000007 -0.000012 -0.108012 0.260253 22.539800 40.985400 -0.000006 -0.000013 -0.322050 3.440270 -66.182700 11.754300 -0.000000 0.000003 -0.000039 -0.000458 -16.595400 -2.192510 6.469440 -0.000001 179.694000 13.778600 178.973000 -39.081100 -0.002282 -0.040193 -0.063211 0.192114 19.102300 -40.985400 0.000008 0.000006 2.286950 7.793860 -65.335900 -11.754300 -0.000006 -0.000006 -0.006747 -0.077480 -19.727000
0.000000 0.000000 0.000000 0.000000 0.000000 -0.000000 -0.952098 92.349800 -0.678663 88.130100 -0.029582 3.125970 15.735700 0.000005 -0.000001 90.516800 85.422300 -90.013900 8.984550 -0.406207 -0.000000 1.389030 0.054562 1.004180 16.377300 -0.000001 -0.000001 4.075860 -3.192580 0.575109 6.456720 -0.000001 -0.000000 1.905560 -2.861360 0.220969 12.994200 -0.242716 4.980390 -90.479900 1.522550 -72.502600 5.348090 -0.000007 -0.000001 -56.455000 23.011900 -23.907100 24.328600 0.000019 0.000005 7.572940 7.280600 -46.355200 22.291600 -0.000001 0.000005 8.009450 5.456320 -4.858720 12.994500 -0.242716 -4.980390 87.683200 6.675840 -70.811100 -5.348130 -0.000001 -0.000004 -65.514800 39.275300 -14.741100 -24.328900 0.000322 -0.000009 1.621560 5.034600 -17.889900 -22.291500 -0.000108 -0.000004 9.496940 5.331290 -0.823069 -2.192480 -6.469440 -0.000000 -175.548000 -6.201040 -3.555340 39.081100 -0.000007 -0.000012 -0.106952 0.257658 22.543100 40.985400 -0.000006 -0.000013 -0.354190 3.602810 -66.091600 11.754300 -0.000000 0.000003 -0.000044 -0.000502 -16.597100 -2.192510 6.469440 -0.000001 179.754000 14.010100 178.987000 -39.081100 -0.002282 -0.040193 -0.061138 0.186022 19.112300 -40.985400 0.000008 0.000006 2.438960 7.701750 -65.346400 -11.754300 -0.000006 -0.000006 -0.006956 -0.079289 -19.800900
0.000000 0.000000 0.000000 0.000000 0.000000 -0.000000 -1.065940 92.353600 -0.742904 88.141900 0.207323 3.176650 15.735700 0.000005 -0.000001 90.247000 85.415600 -89.748800 8.984550 -0.406207 -0.000000 1.402880 0.011857 0.995371 16.377300 -0.000001 -0.000001 4.150770 -3.204410 0.489885 6.456720 -0.000001 -0.000000 1.840270 -2.908720 0.247410 12.994200 -0.242716 4.980390 -90.381500 1.210210 -72.503700 5.348090 -0.000007 -0.000001 -54.665000 16.877500 -26.914000 24.328600 0.000019 0.000005 10.806800 8.036260 -53.771100 22.291600 -0.000001 0.000005 11.203200 5.476660 -5.608970 12.994500 -0.242716 -4.980390 87.652700 6.753190 -70.782600 -5.348130 -0.000001 -0.000004 -65.388200 39.131600 -14.850000 -24.328900 0.000322 -0.000009 1.617310 5.076340 -17.708600 -22.291500 -0.000108 -0.000004 9.548730 5.331320 -0.824010 -2.192480 -6.469440 -0.000000 -175.476000 -6.114940 -3.583220 39.081100 -0.000007 -0.000012 -0.108198 0.260751 22.535900 40.985400 -0.000006 -0.000013 -0.397971 3.771190 -66.013100 11.754300 -0.000000 0.000003 -0.000037 -0.000433 -16.594400 -2.192510 6.469440 -0.000001 179.808000 14.293100 178.988000 -39.081100 -0.002282 -0.040193 -0.060584 0.184061 19.147100 -40.985400 0.000008 0.000006 2.600730 7.691740 -65.361600 -11.754300 -0.000006 -0.000006 -0.007030 -0.079921 -19.826700
0.000000 0.000000 0.000000 0.000000 0.000000 -0.000000 -1.163810 92.357300 -0.791977 88.140400 0.288264 3.226800 15.735700 0.000005 -0.000001 90.046500 85.406900 -89.547000 8.984550 -0.406207 -0.000000 1.420490 -0.020197 0.998463 16.377300 -0.000001 -0.000001 4.141090 -3.174810 0.387378 6.456720 -0.000001 -0.000000 1.764020 -2.827760 0.346137 12.994200 -0.242716 4.980390 -90.241200 0.767529 -72.553300 5.348090 -0.000007 -0.000001 -54.424200 9.430570 -29.908200 24.328600 0.000019 0.000005 14.151000 7.956520 -61.225700 22.291600 -0.000001 0.000005 14.659300 5.493840 -6.276020 12.994500 -0.242716 -4.980390 87.639700 6.783300 -70.762300 -5.348130 -0.000001 -0.000004 -65.291100 38.917900 -14.986200 -24.328900 0.000322 -0.000009 1.629090 5.130350 -17.653900 -22.291500 -0.000108 -0.000004 9.602160 5.331650 -0.833675 -2.192480 -6.469440 -0.000000 -175.401000 -6.049100 -3.568830 39.081100 -0.000007 -0.000012 -0.108710 0.262229 22.517000 40.985400 -0.000006 -0.000013 -0.458808 3.833770 -65.957600 11.754300 -0.000000 0.000003 -0.000038 -0.000444 -16.594800 -2.192510 6.469440 -0.000001 179.866000 14.394100 179.026000 -39.081100 -0.002282 -0.040193 -0.059399 0.180797 19.132700 -40.985400 0.000008 0.000006 2.676520 7.719520 -65.352100 -11.754300 -0.000006 -0.000006 -0.007008 -0.079729 -19.818800
0.000000 0.000000 0.000000 0.000000 0.000000 -0.000000 -1.249210 92.356900 -0.827695 88.110800 0.194668 3.207470 15.735700 0.000005 -0.000001 89.736300 85.422600 -89.249800 8.984550 -0.406207 -0.000000 1.389080 -0.069184 0.972961 16.377300 -0.000001 -0.000001 4.079930 -3.079760 0.365190 6.456720 -0.000001 -0.000000 1.649700 -2.723100 0.757781 12.994200 -0.242716 4.980390 -90.095100 0.301478 -72.500700 5.348090 -0.000007 -0.000001 -55.955500 1.146700 -33.427000 24.328600 0.000019 0.000005 16.585600 6.933700 -67.933200 22.291600 -0.000001 0.000005 18.436200 5.506090 -6.783180 12.994500 -0.242716 -4.980390 87.594600 6.905960 -70.742700 -5.348130 -0.000001 -0.000004 -65.081500 38.836900 -15.169600 -24.328900 0.000322 -0.000009 1.617790 5.064170 -17.753400 -22.291500 -0.000108 -0.000004 9.655380 5.332500 -0.858463 -2.192480 -6.469440 -0.000000 -175.306000 -6.149420 -3.618810 39.081100 -0.000007 -0.000012 -0.109630 0.264103 22.543600 40.985400 -0.000006 -0.000013 -0.516913 3.852650 -65.939600 11.754300 -0.000000 0.000003 -0.000041 -0.000472 -16.595900 -2.192510 6.469440 -0.000001 179.968000 14.392400 178.967000 -39.081100 -0.002282 -0.040193 -0.058494 0.178127 19.138800 -40.985400 0.000008 0.000006 2.731770 7.778960 -65.332900 -11.754300 -0.000006 -0.000006 -0.007055 -0.080138 -19.835500
